# xmcd CD database file
#
# Track frame offsets:
#	150
#	16537
#	30487
#	62212
#	80287
#	89737
#	113887
#	133912
#	150037
#	173812
#
# Disc length: 2483 seconds
#
# Revision: 0
# Processed by: cddbd v1.5.1PL0 Copyright (c) Steve Scherf et al.
# Submitted via: CDex 1.50beta8
#
DISCID=6f09b10a
DTITLE=Oscar Peterson Trio - Oscar Peterson Trio and One, Clark Terry
DYEAR=1956
DGENRE=Jazz
TTITLE0=Brotherhood Of Man
TTITLE1=Jim
TTITLE2=Blues For Smedley
TTITLE3=Roundalay
TTITLE4=Mumbles
TTITLE5=Mack The Knife
TTITLE6=They Didn't Believe Me
TTITLE7=Squeaky's Blues
TTITLE8=I Want A Little Girl
TTITLE9=Incoherent Blues
EXTD=YEAR: 1956
EXTT0=
EXTT1=
EXTT2=
EXTT3=
EXTT4=
EXTT5=
EXTT6=
EXTT7=
EXTT8=
EXTT9=
PLAYORDER=
